# xmcd
#
# Track frame offsets:
#	180
#	20787
#	42390
#	59918
#
# Disc length: 1000 seconds
#
# Revision: 0
# Processed by: cddbd v1.4PL0 Copyright (c) Steve Scherf et al.
# Submitted via: audiograbber 1.81.02
#
DISCID=3a03e604
DTITLE=Connie Kirk - Telephone Call
DYEAR=1994
DGENRE=Blues
TTITLE0=Don't Let the Green Grass Fool Ya
TTITLE1=Telephone Call
TTITLE2=Know on My Own
TTITLE3=Wonderful One
EXTD=
EXTT0=Akines, Bellmon, Drayton, Turner
EXTT1=Rich Harney
EXTT2=Bruce Williamson
EXTT3=Larry Seyer
PLAYORDER=
